<svg id="Layer_1" data-name="Layer 1" xmlns="http://www.w3.org/2000/svg" viewBox="0 0 32 32"><defs><style>.cls-1{fill:#34b66a;}.cls-2{fill:#066d3c;}</style></defs><title>favicon</title><path class="cls-1" d="M0,2.3H1.35c1.68,0,3.35,0,5,0A2.68,2.68,0,0,1,9,3.87Q12.72,11,16.5,18.19a1.48,1.48,0,0,0,.11.14L18,15.24c1.76-3.87,3.54-7.74,5.29-11.61a2,2,0,0,1,1.91-1.35H32l-.83,1.84L21.07,26.17q-.57,1.24-1.17,2.49a1.72,1.72,0,0,1-1.58,1c-.81,0-1.62,0-2.43,0A2.25,2.25,0,0,1,14.42,29a5.26,5.26,0,0,1-1-1.48Q7.87,17.1,2.31,6.65Z"/><path class="cls-1" d="M7.09,29.69H0V10.1l1.45,2.72C3.23,16.1,5,19.37,6.72,22.64a3.09,3.09,0,0,1,.37,1.55c0,1.67,0,3.34,0,5Z"/><path class="cls-2" d="M16.61,18.33,18,15.24c1.76-3.87,3.54-7.74,5.29-11.61a2,2,0,0,1,1.91-1.35H32l-.83,1.84L21.07,26.17c-.05.1-.09.21-.14.32"/></svg>