<svg id="Layer_1" data-name="Layer 1" xmlns="http://www.w3.org/2000/svg" viewBox="0 0 100 72"><defs><style>.cls-1{fill:#34b66a;}.cls-2{fill:#066d3c;}.cls-3{fill:#024a29;}</style></defs><title>logo-full-svg</title><path class="cls-1" d="M24.92.39c.78,0,1.48,0,2.18,0,2.7,0,5.4,0,8.1,0a4.31,4.31,0,0,1,4.18,2.55Q45.44,14.48,51.52,26a1.75,1.75,0,0,0,.18.22c.78-1.69,1.53-3.33,2.28-5C56.83,15,59.7,8.78,62.52,2.53A3.2,3.2,0,0,1,65.6.36H76.52c-.47,1-.9,2-1.34,3Q67,21.11,58.9,38.88c-.62,1.35-1.25,2.68-1.89,4a2.79,2.79,0,0,1-2.56,1.67c-1.3,0-2.61.06-3.91,0a3.62,3.62,0,0,1-2.37-1.11,8.42,8.42,0,0,1-1.6-2.39q-9-16.82-17.92-33.66Z"/><path class="cls-1" d="M36.35,44.55H25V13l2.34,4.4c2.81,5.28,5.6,10.56,8.43,15.84a5,5,0,0,1,.61,2.48c0,2.7,0,5.4,0,8.1Z"/><path class="cls-2" d="M51.7,26.23c.78-1.69,1.53-3.33,2.28-5C56.83,15,59.7,8.78,62.52,2.53A3.2,3.2,0,0,1,65.6.36H76.52c-.47,1-.9,2-1.34,3Q67,21.11,58.9,38.88l-.24.51"/><path class="cls-3" d="M16,71.34H12L4.63,60.16q-.64-1-.9-1.47h0c.07.63.1,1.58.1,2.87v9.78H0V53.55H4.32l7,10.83c.32.49.62,1,.89,1.45h.05a20.18,20.18,0,0,1-.1-2.44V53.55H16Z"/><path class="cls-3" d="M31.75,71.34H27.84V69.4h-.06a4.43,4.43,0,0,1-3.88,2.25c-2.95,0-4.42-1.79-4.42-5.35V58.64h3.91V66c0,1.8.71,2.69,2.13,2.69a2.12,2.12,0,0,0,1.69-.73,3,3,0,0,0,.63-2V58.64h3.91Z"/><path class="cls-3" d="M47.31,58.64l-4.19,6.15,4.16,6.55H42.77l-1.83-3.43a12.16,12.16,0,0,1-.54-1.15h0a7.18,7.18,0,0,1-.51,1.12L38,71.34H33.49L37.79,65l-4-6.37h4.54L40.1,62.2a7.53,7.53,0,0,1,.51,1.19h0a7.49,7.49,0,0,1,.54-1.22L43,58.64Z"/><path class="cls-3" d="M56.75,71.19a5.88,5.88,0,0,1-2.62.46Q50,71.65,50,67.34V61.53H47.93V58.64H50V55.9l3.9-1.12v3.86h2.86v2.89H53.89v5.13c0,1.32.53,2,1.58,2a2.66,2.66,0,0,0,1.28-.35Z"/><path class="cls-3" d="M62.87,71.34H59V52.54h3.92Z"/><path class="cls-3" d="M77.58,66.1H69.3q.2,2.78,3.48,2.77a6.8,6.8,0,0,0,3.68-1V70.7a9.63,9.63,0,0,1-4.57,1,5.92,5.92,0,0,1-6.48-6.47,6.8,6.8,0,0,1,1.84-5,6.08,6.08,0,0,1,4.51-1.85A5.54,5.54,0,0,1,76.06,60a6.36,6.36,0,0,1,1.52,4.47ZM74,63.7c0-1.82-.74-2.73-2.21-2.73a2.11,2.11,0,0,0-1.63.78,3.54,3.54,0,0,0-.84,2Z"/><path class="cls-3" d="M79.08,71V67.83a8.17,8.17,0,0,0,1.93.86,6.37,6.37,0,0,0,1.81.29,3.91,3.91,0,0,0,1.65-.29.91.91,0,0,0,.6-.86.8.8,0,0,0-.27-.62,2.8,2.8,0,0,0-.7-.44,9.33,9.33,0,0,0-.94-.33,9.4,9.4,0,0,1-1-.34,9.22,9.22,0,0,1-1.33-.61,3.76,3.76,0,0,1-1-.76,3.11,3.11,0,0,1-.6-1,4.17,4.17,0,0,1-.2-1.35,3.52,3.52,0,0,1,.46-1.84,3.8,3.8,0,0,1,1.24-1.25,5.55,5.55,0,0,1,1.78-.72,8.84,8.84,0,0,1,2.08-.23,12.15,12.15,0,0,1,3.42.51v3a6.4,6.4,0,0,0-1.6-.65A6.89,6.89,0,0,0,84.8,61a4.21,4.21,0,0,0-.73.07,2.35,2.35,0,0,0-.6.2,1.24,1.24,0,0,0-.41.33.8.8,0,0,0-.15.47.92.92,0,0,0,.22.6,2.07,2.07,0,0,0,.59.42,6,6,0,0,0,.8.33l.87.29a12.66,12.66,0,0,1,1.42.59,4.62,4.62,0,0,1,1.08.76,3.15,3.15,0,0,1,.7,1,3.59,3.59,0,0,1,.24,1.38,3.66,3.66,0,0,1-.49,1.93A3.79,3.79,0,0,1,87,70.68a5.9,5.9,0,0,1-1.87.74,10.52,10.52,0,0,1-2.2.23A11.32,11.32,0,0,1,79.08,71Z"/><path class="cls-3" d="M90.25,71V67.83a8.36,8.36,0,0,0,1.93.86A6.43,6.43,0,0,0,94,69a3.89,3.89,0,0,0,1.64-.29.91.91,0,0,0,.6-.86.8.8,0,0,0-.27-.62,2.62,2.62,0,0,0-.7-.44,9.33,9.33,0,0,0-.94-.33,10.28,10.28,0,0,1-1-.34A9.22,9.22,0,0,1,92,65.49a3.94,3.94,0,0,1-1-.76,2.92,2.92,0,0,1-.59-1,3.91,3.91,0,0,1-.21-1.35,3.52,3.52,0,0,1,.47-1.84A3.71,3.71,0,0,1,92,59.28a5.49,5.49,0,0,1,1.77-.72,8.9,8.9,0,0,1,2.08-.23,12.15,12.15,0,0,1,3.42.51v3a6.33,6.33,0,0,0-1.59-.65A7,7,0,0,0,96,61a4.21,4.21,0,0,0-.73.07,2.64,2.64,0,0,0-.6.2,1.24,1.24,0,0,0-.41.33.8.8,0,0,0-.15.47.88.88,0,0,0,.23.6,2,2,0,0,0,.58.42,6.65,6.65,0,0,0,.8.33l.87.29a11.27,11.27,0,0,1,1.42.59,4.62,4.62,0,0,1,1.08.76,2.86,2.86,0,0,1,.7,1,4.06,4.06,0,0,1-.25,3.31,3.85,3.85,0,0,1-1.3,1.3,6,6,0,0,1-1.87.74,10.69,10.69,0,0,1-2.21.23A11.36,11.36,0,0,1,90.25,71Z"/></svg>