<svg id="Layer_1" data-name="Layer 1" xmlns="http://www.w3.org/2000/svg" viewBox="0 0 100 86"><defs><style>.cls-1{fill:#34b66a;}.cls-2{fill:#066d3c;}</style></defs><title>logo-top</title><path class="cls-1" d="M0,.19H4.23c5.23,0,10.47,0,15.7,0a8.38,8.38,0,0,1,8.1,5Q39.78,27.49,51.56,49.84a3.1,3.1,0,0,0,.35.43l4.42-9.65q8.3-18.15,16.55-36.29c1.2-2.65,3-4.21,6-4.22H100c-.9,2-1.74,3.89-2.6,5.76Q81.63,40.32,65.85,74.78c-1.19,2.61-2.42,5.2-3.65,7.8a5.41,5.41,0,0,1-5,3.23c-2.52.1-5.06.11-7.58,0a7,7,0,0,1-4.59-2.14A16.17,16.17,0,0,1,42,79Q24.56,46.43,7.23,13.8Z"/><path class="cls-1" d="M22.15,85.77H.11V24.55l4.54,8.52Q12.81,48.41,21,63.76a9.8,9.8,0,0,1,1.18,4.82c-.05,5.23,0,10.47,0,15.7Z"/><path class="cls-2" d="M51.91,50.27l4.42-9.65q8.3-18.15,16.55-36.29c1.2-2.65,3-4.21,6-4.22H100c-.9,2-1.74,3.89-2.6,5.76Q81.63,40.32,65.85,74.78c-.15.33-.3.66-.46,1"/></svg>